<?xml version="1.0" encoding="utf-8"?>
<!-- Generator: Adobe Illustrator 24.2.1, SVG Export Plug-In . SVG Version: 6.00 Build 0)  -->
<svg version="1.1" id="Layer_1" xmlns="http://www.w3.org/2000/svg" xmlns:xlink="http://www.w3.org/1999/xlink" x="0px" y="0px"
	 viewBox="0 0 841.9 595.3" style="enable-background:new 0 0 841.9 595.3;" xml:space="preserve">
<style type="text/css">
	.st0{display:none;fill:#AE2326;}
	.st1{display:none;}
	.st2{display:inline;fill:none;stroke:#231F20;stroke-miterlimit:10;}
	.st3{fill:#AE2326;}
	.st4{fill:none;stroke:#231F20;stroke-miterlimit:10;}
</style>
<circle class="st0" cx="490.6" cy="242.5" r="233"/>
<g class="st1">
	<circle class="st2" cx="400.4" cy="304.6" r="256.5"/>
	<circle class="st2" cx="398.2" cy="300.9" r="248.7"/>
	
		<ellipse transform="matrix(0.7071 -0.7071 0.7071 0.7071 -94.1633 367.079)" class="st2" cx="396" cy="297.2" rx="240.8" ry="240.8"/>
	
		<ellipse transform="matrix(0.7071 -0.7071 0.7071 0.7071 -92.1798 364.4547)" class="st2" cx="393.8" cy="293.5" rx="232.9" ry="232.9"/>
	
		<ellipse transform="matrix(0.7071 -0.7071 0.7071 0.7071 -90.1962 361.8303)" class="st2" cx="391.7" cy="289.8" rx="225" ry="225"/>
	
		<ellipse transform="matrix(0.7071 -0.7071 0.7071 0.7071 -88.2127 359.206)" class="st2" cx="389.5" cy="286.1" rx="217.2" ry="217.2"/>
	
		<ellipse transform="matrix(0.7071 -0.7071 0.7071 0.7071 -86.2291 356.5816)" class="st2" cx="387.3" cy="282.4" rx="209.3" ry="209.3"/>
	
		<ellipse transform="matrix(0.7071 -0.7071 0.7071 0.7071 -84.2455 353.9572)" class="st2" cx="385.1" cy="278.7" rx="201.4" ry="201.4"/>
	
		<ellipse transform="matrix(0.7071 -0.7071 0.7071 0.7071 -82.262 351.3329)" class="st2" cx="383" cy="275" rx="193.5" ry="193.5"/>
	
		<ellipse transform="matrix(0.7071 -0.7071 0.7071 0.7071 -80.2784 348.7085)" class="st2" cx="380.8" cy="271.3" rx="185.7" ry="185.7"/>
	
		<ellipse transform="matrix(0.7071 -0.7071 0.7071 0.7071 -78.2949 346.0842)" class="st2" cx="378.6" cy="267.6" rx="177.8" ry="177.8"/>
	
		<ellipse transform="matrix(0.7071 -0.7071 0.7071 0.7071 -76.3113 343.4598)" class="st2" cx="376.4" cy="263.8" rx="169.9" ry="169.9"/>
	
		<ellipse transform="matrix(0.7071 -0.7071 0.7071 0.7071 -74.3278 340.8355)" class="st2" cx="374.3" cy="260.1" rx="162" ry="162"/>
	
		<ellipse transform="matrix(0.7071 -0.7071 0.7071 0.7071 -72.3442 338.2111)" class="st2" cx="372.1" cy="256.4" rx="154.2" ry="154.2"/>
	
		<ellipse transform="matrix(0.7071 -0.7071 0.7071 0.7071 -70.3607 335.5868)" class="st2" cx="369.9" cy="252.7" rx="146.3" ry="146.3"/>
	
		<ellipse transform="matrix(0.2381 -0.9713 0.9713 0.2381 38.3304 546.8993)" class="st2" cx="367.7" cy="249" rx="138.4" ry="138.4"/>
	
		<ellipse transform="matrix(0.2381 -0.9713 0.9713 0.2381 40.2724 541.9616)" class="st2" cx="365.6" cy="245.3" rx="130.5" ry="130.5"/>
	
		<ellipse transform="matrix(0.2381 -0.9713 0.9713 0.2381 42.2143 537.0239)" class="st2" cx="363.4" cy="241.6" rx="122.7" ry="122.7"/>
	
		<ellipse transform="matrix(0.2381 -0.9713 0.9713 0.2381 44.1562 532.0862)" class="st2" cx="361.2" cy="237.9" rx="114.8" ry="114.8"/>
	
		<ellipse transform="matrix(0.2381 -0.9713 0.9713 0.2381 46.0981 527.1485)" class="st2" cx="359" cy="234.2" rx="106.9" ry="106.9"/>
	<ellipse transform="matrix(0.2381 -0.9713 0.9713 0.2381 48.04 522.2108)" class="st2" cx="356.9" cy="230.5" rx="99" ry="99"/>
	
		<ellipse transform="matrix(0.2381 -0.9713 0.9713 0.2381 49.9819 517.2731)" class="st2" cx="354.7" cy="226.8" rx="91.2" ry="91.2"/>
	
		<ellipse transform="matrix(0.2381 -0.9713 0.9713 0.2381 51.9239 512.3354)" class="st2" cx="352.5" cy="223.1" rx="83.3" ry="83.3"/>
	
		<ellipse transform="matrix(0.2381 -0.9713 0.9713 0.2381 53.8658 507.3977)" class="st2" cx="350.3" cy="219.4" rx="75.4" ry="75.4"/>
	
		<ellipse transform="matrix(0.2381 -0.9713 0.9713 0.2381 55.8077 502.46)" class="st2" cx="348.1" cy="215.7" rx="67.5" ry="67.5"/>
	<ellipse transform="matrix(0.2381 -0.9713 0.9713 0.2381 57.7496 497.5222)" class="st2" cx="346" cy="212" rx="59.7" ry="59.7"/>
	
		<ellipse transform="matrix(0.2381 -0.9713 0.9713 0.2381 59.6915 492.5846)" class="st2" cx="343.8" cy="208.2" rx="51.8" ry="51.8"/>
	
		<ellipse transform="matrix(0.2381 -0.9713 0.9713 0.2381 61.6335 487.6469)" class="st2" cx="341.6" cy="204.5" rx="43.9" ry="43.9"/>
	<ellipse transform="matrix(0.2381 -0.9713 0.9713 0.2381 63.5754 482.7091)" class="st2" cx="339.4" cy="200.8" rx="36" ry="36"/>
	
		<ellipse transform="matrix(0.2381 -0.9713 0.9713 0.2381 65.5173 477.7715)" class="st2" cx="337.3" cy="197.1" rx="28.2" ry="28.1"/>
	
		<ellipse transform="matrix(0.2381 -0.9713 0.9713 0.2381 67.4592 472.8338)" class="st2" cx="335.1" cy="193.4" rx="20.3" ry="20.3"/>
	
		<ellipse transform="matrix(0.2381 -0.9713 0.9713 0.2381 69.4012 467.8961)" class="st2" cx="332.9" cy="189.7" rx="12.4" ry="12.4"/>
</g>
<circle class="st3" cx="490.6" cy="242.5" r="233"/>
<g>
	<circle class="st4" cx="400.4" cy="304.6" r="256.5"/>
	<circle class="st4" cx="398.2" cy="300.9" r="248.7"/>
	
		<ellipse transform="matrix(0.7071 -0.7071 0.7071 0.7071 -94.1633 367.079)" class="st4" cx="396" cy="297.2" rx="240.8" ry="240.8"/>
	
		<ellipse transform="matrix(0.7071 -0.7071 0.7071 0.7071 -92.1798 364.4547)" class="st4" cx="393.8" cy="293.5" rx="232.9" ry="232.9"/>
	
		<ellipse transform="matrix(0.7071 -0.7071 0.7071 0.7071 -90.1962 361.8303)" class="st4" cx="391.7" cy="289.8" rx="225" ry="225"/>
	
		<ellipse transform="matrix(0.7071 -0.7071 0.7071 0.7071 -88.2127 359.206)" class="st4" cx="389.5" cy="286.1" rx="217.2" ry="217.2"/>
	
		<ellipse transform="matrix(0.7071 -0.7071 0.7071 0.7071 -86.2291 356.5816)" class="st4" cx="387.3" cy="282.4" rx="209.3" ry="209.3"/>
	
		<ellipse transform="matrix(0.7071 -0.7071 0.7071 0.7071 -84.2455 353.9572)" class="st4" cx="385.1" cy="278.7" rx="201.4" ry="201.4"/>
	
		<ellipse transform="matrix(0.7071 -0.7071 0.7071 0.7071 -82.262 351.3329)" class="st4" cx="383" cy="275" rx="193.5" ry="193.5"/>
	
		<ellipse transform="matrix(0.7071 -0.7071 0.7071 0.7071 -80.2784 348.7085)" class="st4" cx="380.8" cy="271.3" rx="185.7" ry="185.7"/>
	
		<ellipse transform="matrix(0.7071 -0.7071 0.7071 0.7071 -78.2949 346.0842)" class="st4" cx="378.6" cy="267.6" rx="177.8" ry="177.8"/>
	
		<ellipse transform="matrix(0.7071 -0.7071 0.7071 0.7071 -76.3113 343.4598)" class="st4" cx="376.4" cy="263.8" rx="169.9" ry="169.9"/>
	
		<ellipse transform="matrix(0.7071 -0.7071 0.7071 0.7071 -74.3278 340.8355)" class="st4" cx="374.3" cy="260.1" rx="162" ry="162"/>
	
		<ellipse transform="matrix(0.7071 -0.7071 0.7071 0.7071 -72.3442 338.2111)" class="st4" cx="372.1" cy="256.4" rx="154.2" ry="154.2"/>
	
		<ellipse transform="matrix(0.7071 -0.7071 0.7071 0.7071 -70.3607 335.5868)" class="st4" cx="369.9" cy="252.7" rx="146.3" ry="146.3"/>
	
		<ellipse transform="matrix(0.2381 -0.9713 0.9713 0.2381 38.3304 546.8993)" class="st4" cx="367.7" cy="249" rx="138.4" ry="138.4"/>
	
		<ellipse transform="matrix(0.2381 -0.9713 0.9713 0.2381 40.2724 541.9616)" class="st4" cx="365.6" cy="245.3" rx="130.5" ry="130.5"/>
	
		<ellipse transform="matrix(0.2381 -0.9713 0.9713 0.2381 42.2143 537.0239)" class="st4" cx="363.4" cy="241.6" rx="122.7" ry="122.7"/>
	
		<ellipse transform="matrix(0.2381 -0.9713 0.9713 0.2381 44.1562 532.0862)" class="st4" cx="361.2" cy="237.9" rx="114.8" ry="114.8"/>
	
		<ellipse transform="matrix(0.2381 -0.9713 0.9713 0.2381 46.0981 527.1485)" class="st4" cx="359" cy="234.2" rx="106.9" ry="106.9"/>
	<ellipse transform="matrix(0.2381 -0.9713 0.9713 0.2381 48.04 522.2108)" class="st4" cx="356.9" cy="230.5" rx="99" ry="99"/>
	
		<ellipse transform="matrix(0.2381 -0.9713 0.9713 0.2381 49.9819 517.2731)" class="st4" cx="354.7" cy="226.8" rx="91.2" ry="91.2"/>
	
		<ellipse transform="matrix(0.2381 -0.9713 0.9713 0.2381 51.9239 512.3354)" class="st4" cx="352.5" cy="223.1" rx="83.3" ry="83.3"/>
	
		<ellipse transform="matrix(0.2381 -0.9713 0.9713 0.2381 53.8658 507.3977)" class="st4" cx="350.3" cy="219.4" rx="75.4" ry="75.4"/>
	
		<ellipse transform="matrix(0.2381 -0.9713 0.9713 0.2381 55.8077 502.46)" class="st4" cx="348.1" cy="215.7" rx="67.5" ry="67.5"/>
	<ellipse transform="matrix(0.2381 -0.9713 0.9713 0.2381 57.7496 497.5222)" class="st4" cx="346" cy="212" rx="59.7" ry="59.7"/>
	
		<ellipse transform="matrix(0.2381 -0.9713 0.9713 0.2381 59.6915 492.5846)" class="st4" cx="343.8" cy="208.2" rx="51.8" ry="51.8"/>
	
		<ellipse transform="matrix(0.2381 -0.9713 0.9713 0.2381 61.6335 487.6469)" class="st4" cx="341.6" cy="204.5" rx="43.9" ry="43.9"/>
	<ellipse transform="matrix(0.2381 -0.9713 0.9713 0.2381 63.5754 482.7091)" class="st4" cx="339.4" cy="200.8" rx="36" ry="36"/>
	
		<ellipse transform="matrix(0.2381 -0.9713 0.9713 0.2381 65.5173 477.7715)" class="st4" cx="337.3" cy="197.1" rx="28.2" ry="28.1"/>
	
		<ellipse transform="matrix(0.2381 -0.9713 0.9713 0.2381 67.4592 472.8338)" class="st4" cx="335.1" cy="193.4" rx="20.3" ry="20.3"/>
	
		<ellipse transform="matrix(0.2381 -0.9713 0.9713 0.2381 69.4012 467.8961)" class="st4" cx="332.9" cy="189.7" rx="12.4" ry="12.4"/>
</g>
</svg>
