<svg id="Layer_1" data-name="Layer 1" xmlns="http://www.w3.org/2000/svg" viewBox="0 0 514.18 514.18"><defs><style>.cls-1{fill:none;stroke:#231f20;stroke-miterlimit:10;}</style></defs><circle class="cls-1" cx="257.09" cy="257.09" r="256.53"/><circle class="cls-1" cx="254.92" cy="253.39" r="248.66"/><circle class="cls-1" cx="396.02" cy="297.2" r="240.78" transform="translate(-237.45 319.55) rotate(-45)"/><circle class="cls-1" cx="393.85" cy="293.5" r="232.91" transform="translate(-235.46 316.93) rotate(-45)"/><circle class="cls-1" cx="391.67" cy="289.79" r="225.03" transform="translate(-233.48 314.3) rotate(-45)"/><circle class="cls-1" cx="389.49" cy="286.09" r="217.16" transform="translate(-231.49 311.68) rotate(-45)"/><circle class="cls-1" cx="387.32" cy="282.38" r="209.28" transform="translate(-229.51 309.06) rotate(-45)"/><circle class="cls-1" cx="385.14" cy="278.67" r="201.41" transform="translate(-227.53 306.43) rotate(-45)"/><circle class="cls-1" cx="382.97" cy="274.97" r="193.53" transform="translate(-225.54 303.81) rotate(-45)"/><circle class="cls-1" cx="380.79" cy="271.26" r="185.66" transform="translate(-223.56 301.18) rotate(-45)"/><circle class="cls-1" cx="378.61" cy="267.55" r="177.78" transform="translate(-221.58 298.56) rotate(-45)"/><circle class="cls-1" cx="376.44" cy="263.85" r="169.91" transform="translate(-219.59 295.93) rotate(-45)"/><circle class="cls-1" cx="374.26" cy="260.14" r="162.03" transform="translate(-217.61 293.31) rotate(-45)"/><circle class="cls-1" cx="372.08" cy="256.43" r="154.16" transform="translate(-215.63 290.69) rotate(-45)"/><circle class="cls-1" cx="369.91" cy="252.73" r="146.28" transform="translate(-213.64 288.06) rotate(-45)"/><circle class="cls-1" cx="367.73" cy="249.02" r="138.4" transform="translate(-104.95 499.37) rotate(-76.23)"/><circle class="cls-1" cx="365.56" cy="245.31" r="130.53" transform="translate(-103.01 494.44) rotate(-76.23)"/><circle class="cls-1" cx="363.38" cy="241.61" r="122.65" transform="translate(-101.07 489.5) rotate(-76.23)"/><circle class="cls-1" cx="361.2" cy="237.9" r="114.78" transform="translate(-99.13 484.56) rotate(-76.23)"/><circle class="cls-1" cx="359.03" cy="234.19" r="106.9" transform="translate(-97.18 479.62) rotate(-76.23)"/><circle class="cls-1" cx="356.85" cy="230.49" r="99.03" transform="translate(-95.24 474.69) rotate(-76.23)"/><circle class="cls-1" cx="354.68" cy="226.78" r="91.15" transform="translate(-93.3 469.75) rotate(-76.23)"/><circle class="cls-1" cx="352.5" cy="223.07" r="83.28" transform="translate(-91.36 464.81) rotate(-76.23)"/><circle class="cls-1" cx="350.32" cy="219.37" r="75.4" transform="translate(-89.42 459.87) rotate(-76.23)"/><circle class="cls-1" cx="348.15" cy="215.66" r="67.53" transform="translate(-87.47 454.93) rotate(-76.23)"/><circle class="cls-1" cx="345.97" cy="211.95" r="59.65" transform="translate(-85.53 450) rotate(-76.23)"/><circle class="cls-1" cx="343.8" cy="208.25" r="51.78" transform="translate(-83.59 445.06) rotate(-76.23)"/><circle class="cls-1" cx="341.62" cy="204.54" r="43.9" transform="translate(-81.65 440.12) rotate(-76.23)"/><circle class="cls-1" cx="339.44" cy="200.83" r="36.03" transform="translate(-79.71 435.18) rotate(-76.23)"/><circle class="cls-1" cx="337.27" cy="197.13" r="28.15" transform="translate(-77.76 430.25) rotate(-76.23)"/><circle class="cls-1" cx="335.09" cy="193.42" r="20.27" transform="translate(-75.82 425.31) rotate(-76.23)"/><circle class="cls-1" cx="332.92" cy="189.72" r="12.4" transform="translate(-73.88 420.37) rotate(-76.23)"/></svg>